<svg xmlns="http://www.w3.org/2000/svg" viewBox="0 -4.5 64 64" width="64" height="64" role="img" aria-label="SystemInsights">
  
  <line x1="5" y1="22" x2="5" y2="10" stroke="#FFFFFF" stroke-width="2" stroke-linecap="round"></line>
  <circle cx="5" cy="8.8" r="1.9" fill="#FFFFFF"></circle>
  <line x1="32" y1="10" x2="32" y2="3" stroke="#FFFFFF" stroke-width="2" stroke-linecap="round"></line>
  <circle cx="32" cy="2.2" r="2.2" fill="#FFFFFF"></circle>
  <line x1="59" y1="22" x2="59" y2="12" stroke="#FFFFFF" stroke-width="2" stroke-linecap="round"></line>
  <circle cx="59" cy="10.8" r="1.9" fill="#FFFFFF"></circle>
  
  <path d="M12 16 Q12 10 18 10 L46 10 Q52 10 52 16 L52 40 Q52 46 46 46 L26 46 L18 55 L20 46 L18 46 Q12 46 12 40 Z" fill="#FFFFFF"></path>
  
  <circle cx="5" cy="26" r="4" fill="#FFFFFF"></circle>
  <circle cx="5" cy="26" r="2" fill="#2C6BED"></circle>
  <circle cx="59" cy="26" r="4" fill="#FFFFFF"></circle>
  <circle cx="59" cy="26" r="2" fill="#2C6BED"></circle>
  
  <rect x="17" y="18" width="30" height="20" rx="5" fill="#2C6BED"></rect>
  <circle cx="25" cy="28" r="3.4" fill="#6EE7D9"></circle>
  <circle cx="39" cy="28" r="3.4" fill="#6EE7D9"></circle>
</svg>